<svg width="50" height="36" viewBox="0 0 50 36" fill="none" xmlns="http://www.w3.org/2000/svg">
<path d="M38.4589 2C43.7282 2 47.9999 9.16344 47.9999 18C47.9999 26.8366 43.7282 34 38.4589 34C33.1895 34 28.9179 24.72 25.0061 18C28.9179 11.44 33.1895 2 38.4589 2Z" stroke="url(#paint0_radial_2_3)" stroke-width="4"/>
<path d="M11.5409 34C6.27153 34 1.99988 26.8366 1.99988 18C1.99988 9.16344 6.27153 2 11.5409 2C16.8102 2 21.0819 11.28 24.9937 18C21.0819 24.56 16.8102 34 11.5409 34Z" stroke="url(#paint1_radial_2_3)" stroke-width="4"/>
<defs>
<radialGradient id="paint0_radial_2_3" cx="0" cy="0" r="1" gradientUnits="userSpaceOnUse" gradientTransform="translate(25.0001 59) rotate(-65.2425) scale(113.425 90.9149)">
<stop offset="0.226037" stop-color="#0066CC"/>
<stop offset="0.22922" stop-color="#0066CC"/>
<stop offset="0.522846" stop-color="#222222"/>
</radialGradient>
<radialGradient id="paint1_radial_2_3" cx="0" cy="0" r="1" gradientUnits="userSpaceOnUse" gradientTransform="translate(25.0001 59) rotate(-65.2425) scale(113.425 90.9149)">
<stop offset="0.226037" stop-color="#0066CC"/>
<stop offset="0.22922" stop-color="#0066CC"/>
<stop offset="0.522846" stop-color="#222222"/>
</radialGradient>
</defs>
</svg>
